<svg width="32" height="32" viewBox="0 0 32 32" fill="none" xmlns="http://www.w3.org/2000/svg">
<path d="M10.1273 20.4663C10.5179 20.0757 11.151 20.0757 11.5416 20.4663C11.9321 20.8568 11.9321 21.4899 11.5416 21.8804L7.41467 26.0056H10.3333C10.8396 26.0056 11.258 26.3819 11.3242 26.8699L11.3333 27.0056C11.3333 27.5579 10.8856 28.0056 10.3333 28.0056H5C4.44772 28.0056 4 27.5579 4 27.0056V21.6723C4 21.12 4.44772 20.6723 5 20.6723C5.55228 20.6723 6 21.12 6 21.6723V24.5909L10.1273 20.4663ZM21.6733 28.0056C21.1211 28.0056 20.6733 27.5579 20.6733 27.0056C20.6733 26.4533 21.1211 26.0056 21.6733 26.0056H24.588L20.466 21.8801C20.1111 21.5251 20.0791 20.9695 20.3696 20.5781L20.4665 20.466C20.8572 20.0756 21.4904 20.0759 21.8807 20.4665L26.0067 24.5949V21.6723C26.0067 21.166 26.3829 20.7476 26.8709 20.6815L27.0067 20.6723C27.5589 20.6723 28.0067 21.12 28.0067 21.6723V27.0056C28.0067 27.5579 27.5589 28.0056 27.0067 28.0056H21.6733ZM10.3333 4C10.8856 4 11.3333 4.44772 11.3333 5C11.3333 5.55228 10.8856 6 10.3333 6H7.41733L11.5407 10.1265C11.8956 10.4817 11.9277 11.0372 11.637 11.4286L11.5402 11.5407C11.1495 11.9311 10.5163 11.9308 10.1259 11.5402L6 7.41067V10.3333C6 10.8396 5.6238 11.258 5.13569 11.3242L5 11.3333C4.44772 11.3333 4 10.8856 4 10.3333V5C4 4.44772 4.44772 4 5 4H10.3333ZM27.0067 4C27.5589 4 28.0067 4.44772 28.0067 5V10.3333C28.0067 10.8856 27.5589 11.3333 27.0067 11.3333C26.4544 11.3333 26.0067 10.8856 26.0067 10.3333V7.412L21.8805 11.5403C21.5256 11.8954 20.9701 11.9278 20.5785 11.6374L20.4664 11.5406C20.0757 11.1501 20.0756 10.517 20.4661 10.1264L24.5893 6H21.6733C21.1671 6 20.7487 5.6238 20.6824 5.13569L20.6733 5C20.6733 4.44772 21.1211 4 21.6733 4H27.0067Z" fill="#4D4844"/>
</svg>
