<svg width="32" height="32" viewBox="0 0 32 32" fill="none" xmlns="http://www.w3.org/2000/svg">
<path d="M22.6667 5.33317C21.9303 5.33317 21.3333 4.73622 21.3333 3.99984C21.3333 3.26346 21.9303 2.6665 22.6667 2.6665H28C28.7364 2.6665 29.3333 3.26346 29.3333 3.99984V9.33317C29.3333 10.0696 28.7364 10.6665 28 10.6665C27.2636 10.6665 26.6667 10.0696 26.6667 9.33317V7.21879L18.9428 14.9426C18.4221 15.4633 17.5779 15.4633 17.0572 14.9426L13.3333 11.2188L6.27614 18.276C5.75544 18.7967 4.91122 18.7967 4.39052 18.276C3.86983 17.7553 3.86983 16.9111 4.39052 16.3904L12.3905 8.39036C12.6406 8.14031 12.9797 7.99984 13.3333 7.99984C13.687 7.99984 14.0261 8.14031 14.2761 8.39036L18 12.1142L24.781 5.33317H22.6667ZM6.66667 23.9998V27.9998C6.66667 28.7362 6.06971 29.3332 5.33333 29.3332C4.59695 29.3332 4 28.7362 4 27.9998V23.9998C4 23.2635 4.59695 22.6665 5.33333 22.6665C6.06971 22.6665 6.66667 23.2635 6.66667 23.9998ZM13.3333 18.6665C13.3333 17.9301 12.7364 17.3332 12 17.3332C11.2636 17.3332 10.6667 17.9301 10.6667 18.6665V27.9998C10.6667 28.7362 11.2636 29.3332 12 29.3332C12.7364 29.3332 13.3333 28.7362 13.3333 27.9998V18.6665ZM18.6667 19.9998C19.403 19.9998 20 20.5968 20 21.3332V27.9998C20 28.7362 19.403 29.3332 18.6667 29.3332C17.9303 29.3332 17.3333 28.7362 17.3333 27.9998V21.3332C17.3333 20.5968 17.9303 19.9998 18.6667 19.9998ZM26.6667 14.6665C26.6667 13.9301 26.0697 13.3332 25.3333 13.3332C24.597 13.3332 24 13.9301 24 14.6665V27.9998C24 28.7362 24.597 29.3332 25.3333 29.3332C26.0697 29.3332 26.6667 28.7362 26.6667 27.9998V14.6665Z" fill="#4D4844"/>
</svg>
