<svg width="32" height="32" viewBox="0 0 32 32" fill="none" xmlns="http://www.w3.org/2000/svg">
<path d="M11.5538 20.9795C11.8796 21.2102 12.2692 21.3334 12.6684 21.332V21.3267C13.0448 21.3275 13.4131 21.2177 13.7276 21.011C14.0422 20.8043 14.2891 20.5098 14.4377 20.164L15.2551 17.6787C15.4438 17.1157 15.761 16.6043 16.1814 16.185C16.6019 15.7656 17.1142 15.4499 17.6777 15.2627L20.0484 14.492C20.4303 14.3578 20.7601 14.1067 20.991 13.7742C21.2218 13.4418 21.342 13.045 21.3343 12.6403C21.3266 12.2356 21.1915 11.8437 20.9482 11.5202C20.7049 11.1967 20.3657 10.9583 19.9791 10.8387L17.6391 10.0787C17.073 9.89033 16.5587 9.57256 16.137 9.15061C15.7153 8.72866 15.3978 8.21417 15.2097 7.64802L14.4391 5.27868C14.3047 4.90132 14.056 4.57518 13.7278 4.3456C13.3995 4.11602 13.0079 3.9944 12.6073 3.99762C12.2067 4.00085 11.8171 4.12877 11.4926 4.3636C11.168 4.59844 10.9247 4.92853 10.7964 5.30802L10.0191 7.69735C9.83161 8.24704 9.5218 8.74699 9.11299 9.15949C8.70418 9.572 8.20704 9.8863 7.65906 10.0787L5.28972 10.84C5.00789 10.9386 4.75284 11.1014 4.54473 11.3155C4.33662 11.5296 4.18116 11.7891 4.09063 12.0736C4.0001 12.3582 3.97699 12.6598 4.02311 12.9548C4.06923 13.2498 4.18333 13.53 4.35639 13.7734C4.59224 14.1053 4.92677 14.3545 5.31239 14.4853L7.65106 15.244C8.21856 15.4339 8.73398 15.7535 9.15639 16.1773C9.26981 16.2899 9.37581 16.4097 9.47372 16.536C9.73929 16.8797 9.94444 17.2661 10.0804 17.6787L10.8511 20.0453C10.9824 20.4223 11.228 20.7489 11.5538 20.9795ZM21.776 27.7094C21.5219 27.5283 21.3308 27.2723 21.2293 26.9774L20.792 25.6347C20.7069 25.3794 20.5641 25.1471 20.3746 24.956C20.1847 24.7655 19.9527 24.6221 19.6973 24.5374L18.376 24.1067C18.0688 24.0036 17.8022 23.8056 17.6146 23.5414C17.4316 23.285 17.3337 22.9777 17.3346 22.6627C17.3351 22.3457 17.4343 22.0366 17.6186 21.7787C17.8016 21.5194 18.0621 21.3247 18.3626 21.2227L19.704 20.788C19.9533 20.6995 20.1791 20.555 20.364 20.3658C20.5489 20.1765 20.688 19.9474 20.7706 19.696L21.2026 18.3734C21.3043 18.0744 21.4963 17.8143 21.7521 17.6292C22.0079 17.4441 22.3149 17.343 22.6307 17.3399C22.9465 17.3368 23.2554 17.4319 23.5148 17.612C23.7742 17.7922 23.9712 18.0484 24.0786 18.3454L24.5173 19.6974C24.6032 19.9508 24.7466 20.1809 24.9363 20.3697C25.126 20.5584 25.3568 20.7007 25.6106 20.7854L26.9333 21.216C27.2382 21.3114 27.5054 21.5003 27.6969 21.756C27.8884 22.0117 27.9945 22.3212 28.0003 22.6406C28.0061 22.96 27.9111 23.2731 27.7289 23.5356C27.5467 23.798 27.2866 23.9964 26.9853 24.1027L25.6333 24.5414C25.3799 24.6277 25.1496 24.771 24.96 24.96C24.7702 25.1504 24.6274 25.3823 24.5426 25.6374L24.1133 26.956C24.0099 27.2631 23.8115 27.5293 23.5466 27.716C23.2907 27.9001 22.9833 27.999 22.668 27.9987C22.3476 27.9987 22.0354 27.8974 21.776 27.7094Z" fill="#4D4844"/>
</svg>
